<svg width="227" height="60" viewBox="0 0 227 60" fill="none" xmlns="http://www.w3.org/2000/svg">
<path d="M0 10C0 4.47715 4.47715 0 10 0H50C55.5228 0 60 4.47715 60 10V50C60 55.5228 55.5228 60 50 60H10C4.47715 60 0 55.5228 0 50V10Z" fill="url(#paint0_linear_1571_30788)"/>
<path fill-rule="evenodd" clip-rule="evenodd" d="M34.75 43.3563C34.75 44.0984 35.7124 44.3898 36.124 43.7724L46.6393 27.9994C46.9716 27.501 46.6143 26.8334 46.0153 26.8334H37.9167V16.6438C37.9167 15.9018 36.9542 15.6104 36.5426 16.2278L26.0274 32.0007C25.6951 32.4991 26.0524 33.1667 26.6514 33.1667H34.75V43.3563Z" fill="white"/>
<path opacity="0.3" fill-rule="evenodd" clip-rule="evenodd" d="M15.75 20.4167C15.75 19.5883 16.4216 18.9167 17.25 18.9167H26.9167C27.7451 18.9167 28.4167 19.5883 28.4167 20.4167V22.1667C28.4167 22.9952 27.7451 23.6667 26.9167 23.6667H17.25C16.4216 23.6667 15.75 22.9952 15.75 22.1667V20.4167ZM15.75 39.4167C15.75 38.5883 16.4216 37.9167 17.25 37.9167H26.9167C27.7451 37.9167 28.4167 38.5883 28.4167 39.4167V41.1667C28.4167 41.9952 27.7451 42.6667 26.9167 42.6667H17.25C16.4216 42.6667 15.75 41.9952 15.75 41.1667V39.4167ZM14.0834 28.4167C13.2549 28.4167 12.5834 29.0883 12.5834 29.9167V31.6667C12.5834 32.4952 13.2549 33.1667 14.0834 33.1667H22.1667C22.9951 33.1667 23.6667 32.4952 23.6667 31.6667V29.9167C23.6667 29.0883 22.9951 28.4167 22.1667 28.4167H14.0834Z" fill="white"/>
<path d="M71.312 43V19.348H77.108C79.532 19.348 81.56 19.816 83.192 20.752C84.848 21.664 86.084 22.996 86.9 24.748C87.74 26.5 88.16 28.612 88.16 31.084C88.16 33.556 87.74 35.692 86.9 37.492C86.084 39.268 84.86 40.636 83.228 41.596C81.596 42.532 79.592 43 77.216 43H71.312ZM73.976 40.804H76.892C78.812 40.804 80.396 40.408 81.644 39.616C82.916 38.824 83.864 37.708 84.488 36.268C85.112 34.828 85.424 33.1 85.424 31.084C85.424 29.092 85.112 27.388 84.488 25.972C83.864 24.532 82.916 23.44 81.644 22.696C80.396 21.928 78.812 21.544 76.892 21.544H73.976V40.804Z" fill="white"/>
<path d="M97.0981 43.432C96.1381 43.432 95.2741 43.24 94.5061 42.856C93.7381 42.472 93.1261 41.92 92.6701 41.2C92.2141 40.456 91.9861 39.556 91.9861 38.5C91.9861 36.604 92.8501 35.152 94.5781 34.144C96.3301 33.112 99.0901 32.392 102.858 31.984C102.858 31.192 102.75 30.436 102.534 29.716C102.342 28.996 101.97 28.42 101.418 27.988C100.89 27.532 100.122 27.304 99.1141 27.304C98.0581 27.304 97.0741 27.508 96.1621 27.916C95.2741 28.324 94.4941 28.756 93.8221 29.212L92.7781 27.412C93.2821 27.076 93.8821 26.728 94.5781 26.368C95.2741 26.008 96.0421 25.708 96.8821 25.468C97.7221 25.228 98.6101 25.108 99.5461 25.108C100.962 25.108 102.102 25.408 102.966 26.008C103.83 26.608 104.454 27.436 104.838 28.492C105.246 29.548 105.45 30.784 105.45 32.2V43H103.29L103.074 40.876H102.966C102.126 41.572 101.214 42.172 100.23 42.676C99.2461 43.18 98.2021 43.432 97.0981 43.432ZM97.7821 41.308C98.6941 41.308 99.5341 41.104 100.302 40.696C101.094 40.264 101.946 39.652 102.858 38.86V33.748C100.794 33.988 99.1621 34.324 97.9621 34.756C96.7621 35.164 95.8981 35.668 95.3701 36.268C94.8421 36.868 94.5781 37.564 94.5781 38.356C94.5781 39.388 94.8901 40.144 95.5141 40.624C96.1621 41.08 96.9181 41.308 97.7821 41.308Z" fill="white"/>
<path d="M116.465 43.432C114.665 43.432 113.405 42.904 112.685 41.848C111.989 40.792 111.641 39.424 111.641 37.744V27.7H109.013V25.72L111.749 25.54L112.073 20.608H114.269V25.54H119.057V27.7H114.269V37.816C114.269 38.896 114.461 39.748 114.845 40.372C115.253 40.972 115.985 41.272 117.041 41.272C117.353 41.272 117.689 41.224 118.049 41.128C118.433 41.032 118.769 40.924 119.057 40.804L119.597 42.784C119.117 42.952 118.601 43.096 118.049 43.216C117.497 43.36 116.969 43.432 116.465 43.432Z" fill="white"/>
<path d="M127.051 43.432C126.091 43.432 125.227 43.24 124.459 42.856C123.691 42.472 123.079 41.92 122.623 41.2C122.167 40.456 121.939 39.556 121.939 38.5C121.939 36.604 122.803 35.152 124.531 34.144C126.283 33.112 129.043 32.392 132.811 31.984C132.811 31.192 132.703 30.436 132.487 29.716C132.295 28.996 131.923 28.42 131.371 27.988C130.843 27.532 130.075 27.304 129.067 27.304C128.011 27.304 127.027 27.508 126.115 27.916C125.227 28.324 124.447 28.756 123.775 29.212L122.731 27.412C123.235 27.076 123.835 26.728 124.531 26.368C125.227 26.008 125.995 25.708 126.835 25.468C127.675 25.228 128.563 25.108 129.499 25.108C130.915 25.108 132.055 25.408 132.919 26.008C133.783 26.608 134.407 27.436 134.791 28.492C135.199 29.548 135.403 30.784 135.403 32.2V43H133.243L133.027 40.876H132.919C132.079 41.572 131.167 42.172 130.183 42.676C129.199 43.18 128.155 43.432 127.051 43.432ZM127.735 41.308C128.647 41.308 129.487 41.104 130.255 40.696C131.047 40.264 131.899 39.652 132.811 38.86V33.748C130.747 33.988 129.115 34.324 127.915 34.756C126.715 35.164 125.851 35.668 125.323 36.268C124.795 36.868 124.531 37.564 124.531 38.356C124.531 39.388 124.843 40.144 125.467 40.624C126.115 41.08 126.871 41.308 127.735 41.308Z" fill="white"/>
<path d="M150.162 43.432C148.194 43.432 146.442 42.952 144.906 41.992C143.37 41.008 142.158 39.604 141.27 37.78C140.382 35.932 139.938 33.736 139.938 31.192C139.938 29.272 140.19 27.568 140.694 26.08C141.222 24.568 141.954 23.272 142.89 22.192C143.85 21.112 144.954 20.296 146.202 19.744C147.474 19.192 148.854 18.916 150.342 18.916C151.782 18.916 153.042 19.216 154.122 19.816C155.226 20.392 156.102 21.052 156.75 21.796L155.274 23.56C154.65 22.864 153.93 22.312 153.114 21.904C152.322 21.472 151.41 21.256 150.378 21.256C148.842 21.256 147.498 21.664 146.346 22.48C145.194 23.272 144.294 24.412 143.646 25.9C143.022 27.364 142.71 29.104 142.71 31.12C142.71 33.16 143.01 34.924 143.61 36.412C144.234 37.9 145.11 39.052 146.238 39.868C147.39 40.684 148.734 41.092 150.27 41.092C151.446 41.092 152.478 40.852 153.366 40.372C154.278 39.892 155.118 39.22 155.886 38.356L157.362 40.012C156.45 41.092 155.406 41.932 154.23 42.532C153.054 43.132 151.698 43.432 150.162 43.432Z" fill="white"/>
<path d="M161.623 43V25.54H163.783L163.999 28.744H164.107C164.707 27.64 165.427 26.764 166.267 26.116C167.131 25.444 168.067 25.108 169.075 25.108C169.435 25.108 169.759 25.144 170.047 25.216C170.335 25.264 170.611 25.348 170.875 25.468L170.371 27.772C170.083 27.676 169.819 27.604 169.579 27.556C169.363 27.508 169.075 27.484 168.715 27.484C167.971 27.484 167.191 27.796 166.375 28.42C165.559 29.02 164.839 30.088 164.215 31.624V43H161.623Z" fill="white"/>
<path d="M180.517 43.432C179.101 43.432 177.781 43.072 176.557 42.352C175.333 41.632 174.349 40.6 173.605 39.256C172.861 37.888 172.489 36.232 172.489 34.288C172.489 32.344 172.861 30.688 173.605 29.32C174.349 27.952 175.333 26.908 176.557 26.188C177.781 25.468 179.101 25.108 180.517 25.108C181.933 25.108 183.241 25.468 184.441 26.188C185.665 26.908 186.649 27.952 187.393 29.32C188.161 30.688 188.545 32.344 188.545 34.288C188.545 36.232 188.161 37.888 187.393 39.256C186.649 40.6 185.665 41.632 184.441 42.352C183.241 43.072 181.933 43.432 180.517 43.432ZM180.517 41.236C181.573 41.236 182.497 40.948 183.289 40.372C184.105 39.796 184.729 38.992 185.161 37.96C185.617 36.904 185.845 35.68 185.845 34.288C185.845 32.92 185.617 31.708 185.161 30.652C184.729 29.596 184.105 28.78 183.289 28.204C182.497 27.604 181.573 27.304 180.517 27.304C179.485 27.304 178.561 27.604 177.745 28.204C176.953 28.78 176.329 29.596 175.873 30.652C175.441 31.708 175.225 32.92 175.225 34.288C175.225 35.68 175.441 36.904 175.873 37.96C176.329 38.992 176.953 39.796 177.745 40.372C178.561 40.948 179.485 41.236 180.517 41.236Z" fill="white"/>
<path d="M196.034 43L191.102 25.54H193.802L196.538 35.944C196.73 36.76 196.91 37.564 197.078 38.356C197.27 39.124 197.438 39.928 197.582 40.768H197.726C197.942 39.928 198.146 39.124 198.338 38.356C198.53 37.564 198.734 36.76 198.95 35.944L201.758 25.54H204.386L207.23 35.944C207.446 36.76 207.65 37.564 207.842 38.356C208.058 39.124 208.262 39.928 208.454 40.768H208.598C208.814 39.928 209.006 39.124 209.174 38.356C209.366 37.564 209.558 36.76 209.75 35.944L212.414 25.54H214.934L210.182 43H206.942L204.278 33.244C204.086 32.404 203.894 31.576 203.702 30.76C203.51 29.944 203.306 29.104 203.09 28.24H202.946C202.754 29.104 202.55 29.956 202.334 30.796C202.142 31.636 201.926 32.476 201.686 33.316L199.094 43H196.034Z" fill="white"/>
<defs>
<linearGradient id="paint0_linear_1571_30788" x1="60" y1="0" x2="0" y2="60" gradientUnits="userSpaceOnUse">
<stop stop-color="#D665FF"/>
<stop offset="1" stop-color="#4C6FFF"/>
</linearGradient>
</defs>
</svg>
